<?xml version="1.0" encoding="UTF-8" standalone="no"?>
<!-- Created with Inkscape (http://www.inkscape.org/) -->

<svg
   xmlns:dc="http://purl.org/dc/elements/1.1/"
   xmlns:cc="http://creativecommons.org/ns#"
   xmlns:rdf="http://www.w3.org/1999/02/22-rdf-syntax-ns#"
   xmlns:svg="http://www.w3.org/2000/svg"
   xmlns="http://www.w3.org/2000/svg"
   xmlns:xlink="http://www.w3.org/1999/xlink"
   xmlns:sodipodi="http://sodipodi.sourceforge.net/DTD/sodipodi-0.dtd"
   xmlns:inkscape="http://www.inkscape.org/namespaces/inkscape"
   width="1366"
   height="768"
   id="svg3061"
   version="1.1"
   inkscape:version="0.48.3.1 r9886"
   sodipodi:docname="background.svg"
   inkscape:export-filename="/home/ericw/.conky/background.png"
   inkscape:export-xdpi="90"
   inkscape:export-ydpi="90">
  <defs
     id="defs3063">
    <linearGradient
       id="linearGradient3896">
      <stop
         style="stop-color:#000000;stop-opacity:1;"
         offset="0"
         id="stop3898" />
      <stop
         style="stop-color:#000000;stop-opacity:0;"
         offset="1"
         id="stop3900" />
    </linearGradient>
    <radialGradient
       inkscape:collect="always"
       xlink:href="#linearGradient3896-4"
       id="radialGradient3902-5"
       cx="805"
       cy="343"
       fx="805"
       fy="343"
       r="30"
       gradientUnits="userSpaceOnUse"
       gradientTransform="matrix(1.5,0,0,1.5,-402.5,-171.5)" />
    <linearGradient
       id="linearGradient3896-4">
      <stop
         style="stop-color:#000000;stop-opacity:1;"
         offset="0"
         id="stop3898-5" />
      <stop
         style="stop-color:#000000;stop-opacity:0;"
         offset="1"
         id="stop3900-1" />
    </linearGradient>
    <radialGradient
       inkscape:collect="always"
       xlink:href="#linearGradient3896-7"
       id="radialGradient3902-9"
       cx="805"
       cy="343"
       fx="805"
       fy="343"
       r="30"
       gradientUnits="userSpaceOnUse"
       gradientTransform="matrix(1.5,0,0,1.5,-402.5,-171.5)" />
    <linearGradient
       id="linearGradient3896-7">
      <stop
         style="stop-color:#000000;stop-opacity:1;"
         offset="0"
         id="stop3898-8" />
      <stop
         style="stop-color:#000000;stop-opacity:0;"
         offset="1"
         id="stop3900-3" />
    </linearGradient>
    <radialGradient
       inkscape:collect="always"
       xlink:href="#linearGradient3896-47"
       id="radialGradient3902-6"
       cx="805"
       cy="343"
       fx="805"
       fy="343"
       r="30"
       gradientUnits="userSpaceOnUse"
       gradientTransform="matrix(1.5,0,0,1.5,-402.5,-171.5)" />
    <linearGradient
       id="linearGradient3896-47">
      <stop
         style="stop-color:#ffffff;stop-opacity:1;"
         offset="0"
         id="stop3898-3" />
      <stop
         style="stop-color:#ffffff;stop-opacity:0;"
         offset="1"
         id="stop3900-9" />
    </linearGradient>
  </defs>
  <sodipodi:namedview
     id="base"
     pagecolor="#ffffff"
     bordercolor="#666666"
     borderopacity="1.0"
     inkscape:pageopacity="0.0"
     inkscape:pageshadow="2"
     inkscape:zoom="1.1098367"
     inkscape:cx="325.23615"
     inkscape:cy="511.72078"
     inkscape:current-layer="layer1"
     inkscape:document-units="px"
     showgrid="true"
     inkscape:window-width="1865"
     inkscape:window-height="1056"
     inkscape:window-x="55"
     inkscape:window-y="24"
     inkscape:window-maximized="1"
     showguides="true"
     inkscape:guide-bbox="true"
     borderlayer="false">
    <inkscape:grid
       type="xygrid"
       id="grid3080"
       empspacing="1"
       visible="true"
       enabled="true"
       snapvisiblegridlinesonly="true"
       spacingx="5px"
       spacingy="5px"
       dotted="true"
       color="#0089ff"
       opacity="0.1254902" />
  </sodipodi:namedview>
  <metadata
     id="metadata3066">
    <rdf:RDF>
      <cc:Work
         rdf:about="">
        <dc:format>image/svg+xml</dc:format>
        <dc:type
           rdf:resource="http://purl.org/dc/dcmitype/StillImage" />
        <dc:title />
      </cc:Work>
    </rdf:RDF>
  </metadata>
  <g
     id="layer1"
     inkscape:label="Layer 1"
     inkscape:groupmode="layer"
     transform="translate(0,-432)">
    <path
       sodipodi:type="arc"
       style="fill:none;stroke:#2c2c2c;stroke-opacity:1;fill-opacity:1;stroke-width:2;stroke-miterlimit:4;stroke-dasharray:none"
       id="path3126-1"
       sodipodi:cx="805"
       sodipodi:cy="343"
       sodipodi:rx="25"
       sodipodi:ry="25"
       d="m 830,343 c 0,13.80712 -11.19288,25 -25,25 -13.80712,0 -25,-11.19288 -25,-25 0,-13.80712 11.19288,-25 25,-25 13.80712,0 25,11.19288 25,25 z"
       transform="translate(-700,442)" />
    <path
       sodipodi:type="arc"
       style="fill:none;stroke:#2c2c2c;stroke-opacity:1;fill-opacity:1;stroke-width:2;stroke-miterlimit:4;stroke-dasharray:none"
       id="path3126-3"
       sodipodi:cx="805"
       sodipodi:cy="343"
       sodipodi:rx="25"
       sodipodi:ry="25"
       d="m 830,343 c 0,13.80712 -11.19288,25 -25,25 -13.80712,0 -25,-11.19288 -25,-25 0,-13.80712 11.19288,-25 25,-25 13.80712,0 25,11.19288 25,25 z"
       transform="translate(-255,477)" />
    <path
       sodipodi:type="arc"
       style="fill:none;stroke:#2c2c2c;stroke-opacity:1;fill-opacity:1;stroke-width:2;stroke-miterlimit:4;stroke-dasharray:none"
       id="path3126-4"
       sodipodi:cx="805"
       sodipodi:cy="343"
       sodipodi:rx="25"
       sodipodi:ry="25"
       d="m 830,343 c 0,13.80712 -11.19288,25 -25,25 -13.80712,0 -25,-11.19288 -25,-25 0,-13.80712 11.19288,-25 25,-25 13.80712,0 25,11.19288 25,25 z"
       transform="translate(-125,617)" />
    <path
       sodipodi:type="arc"
       style="fill:none;stroke:#2c2c2c;stroke-width:2;stroke-linecap:round;stroke-miterlimit:4;stroke-opacity:1;stroke-dasharray:none;fill-opacity:1"
       id="path3126"
       sodipodi:cx="805"
       sodipodi:cy="343"
       sodipodi:rx="25"
       sodipodi:ry="25"
       d="m 830,343 c 0,13.80712 -11.19288,25 -25,25 -13.80712,0 -25,-11.19288 -25,-25 0,-13.80712 11.19288,-25 25,-25 13.80712,0 25,11.19288 25,25 z"
       transform="translate(-5,432)" />
    <path
       style="fill:none;stroke:#2c2c2c;stroke-width:4;stroke-linecap:round;stroke-linejoin:miter;stroke-miterlimit:4;stroke-opacity:1;stroke-dasharray:none"
       d="m 40,590 0,65 c 0,25 65,45 65,70 0,60 0,150 0,175 0,20 5,25 25,25 25,0 95,0 120,0 50,0 100,-105 150,-105 25,0 120,0 145,0 25,0 45,-45 70,-45 25,0 185,0 185,0 l 0,0"
       id="path3854"
       inkscape:connector-curvature="0"
       sodipodi:nodetypes="ccscscccccc" />
    <path
       style="fill:none;stroke:#2c2c2c;stroke-width:4;stroke-linecap:round;stroke-linejoin:miter;stroke-miterlimit:4;stroke-opacity:1;stroke-dasharray:none"
       d="m 545,820 c 25,0 110,140 135,140"
       id="path3856"
       inkscape:connector-curvature="0"
       sodipodi:nodetypes="cc"
       inkscape:export-xdpi="90"
       inkscape:export-ydpi="90" />
    <path
       sodipodi:type="arc"
       style="fill:#4a89a7;fill-opacity:1;stroke:#2c2c2c;stroke-width:4;stroke-linecap:round;stroke-miterlimit:4;stroke-opacity:1;stroke-dasharray:none"
       id="path3890"
       sodipodi:cx="90"
       sodipodi:cy="435"
       sodipodi:rx="5"
       sodipodi:ry="5"
       d="m 95,435 c 0,2.76142 -2.238576,5 -5,5 -2.761424,0 -5,-2.23858 -5,-5 0,-2.76142 2.238576,-5 5,-5 2.761424,0 5,2.23858 5,5 z"
       transform="translate(15,420)" />
    <path
       sodipodi:type="arc"
       style="fill:#46a646;fill-opacity:1;stroke:#2c2c2c;stroke-width:4;stroke-linecap:round;stroke-miterlimit:4;stroke-opacity:1;stroke-dasharray:none"
       id="path3892"
       sodipodi:cx="90"
       sodipodi:cy="460"
       sodipodi:rx="5"
       sodipodi:ry="5"
       d="m 95,460 c 0,2.76142 -2.238576,5 -5,5 -2.761424,0 -5,-2.23858 -5,-5 0,-2.76142 2.238576,-5 5,-5 2.761424,0 5,2.23858 5,5 z"
       transform="translate(15,420)" />
    <path
       sodipodi:type="arc"
       style="fill:#e83737;fill-opacity:1;stroke:#2c2c2c;stroke-width:4;stroke-linecap:round;stroke-miterlimit:4;stroke-opacity:1;stroke-dasharray:none"
       id="path3894"
       sodipodi:cx="90"
       sodipodi:cy="485"
       sodipodi:rx="5"
       sodipodi:ry="5"
       d="m 95,485 c 0,2.76142 -2.238576,5 -5,5 -2.761424,0 -5,-2.23858 -5,-5 0,-2.76142 2.238576,-5 5,-5 2.761424,0 5,2.23858 5,5 z"
       transform="translate(15,420)" />
    <path
       sodipodi:type="arc"
       style="fill:#4a89a7;fill-opacity:1;stroke:#2c2c2c;stroke-width:4;stroke-linecap:round;stroke-miterlimit:4;stroke-opacity:1;stroke-dasharray:none"
       id="path3896"
       sodipodi:cx="560"
       sodipodi:cy="400"
       sodipodi:rx="20"
       sodipodi:ry="20"
       d="m 580,400 c 0,11.04569 -8.95431,20 -20,20 -11.04569,0 -20,-8.95431 -20,-20 0,-11.04569 8.95431,-20 20,-20 11.04569,0 20,8.95431 20,20 z"
       transform="translate(-10,420)" />
    <path
       transform="translate(240,375)"
       sodipodi:type="arc"
       style="fill:#46a646;fill-opacity:1;stroke:#2c2c2c;stroke-width:4;stroke-linecap:round;stroke-miterlimit:4;stroke-opacity:1;stroke-dasharray:none"
       id="path3896-4"
       sodipodi:cx="560"
       sodipodi:cy="400"
       sodipodi:rx="20"
       sodipodi:ry="20"
       d="m 580,400 c 0,11.04569 -8.95431,20 -20,20 -11.04569,0 -20,-8.95431 -20,-20 0,-11.04569 8.95431,-20 20,-20 11.04569,0 20,8.95431 20,20 z" />
    <path
       transform="translate(120,560)"
       sodipodi:type="arc"
       style="fill:#f4732d;fill-opacity:1;stroke:#2c2c2c;stroke-width:4;stroke-linecap:round;stroke-miterlimit:4;stroke-opacity:1;stroke-dasharray:none"
       id="path3896-0"
       sodipodi:cx="560"
       sodipodi:cy="400"
       sodipodi:rx="20"
       sodipodi:ry="20"
       d="m 580,400 c 0,11.04569 -8.95431,20 -20,20 -11.04569,0 -20,-8.95431 -20,-20 0,-11.04569 8.95431,-20 20,-20 11.04569,0 20,8.95431 20,20 z" />
    <path
       transform="translate(-455,385)"
       sodipodi:type="arc"
       style="fill:#b7b7b7;fill-opacity:1;stroke:#2c2c2c;stroke-width:4;stroke-linecap:round;stroke-miterlimit:4;stroke-opacity:1;stroke-dasharray:none"
       id="path3896-43"
       sodipodi:cx="560"
       sodipodi:cy="400"
       sodipodi:rx="20"
       sodipodi:ry="20"
       d="m 580,400 c 0,11.04569 -8.95431,20 -20,20 -11.04569,0 -20,-8.95431 -20,-20 0,-11.04569 8.95431,-20 20,-20 11.04569,0 20,8.95431 20,20 z" />
    <text
       xml:space="preserve"
       style="font-size:40px;font-style:normal;font-variant:normal;font-weight:normal;font-stretch:normal;line-height:125%;letter-spacing:0px;word-spacing:0px;fill:#000000;fill-opacity:1;stroke:none;font-family:Arial;-inkscape-font-specification:Arial"
       x="189.16667"
       y="249.16667"
       id="text3964"
       sodipodi:linespacing="125%"><tspan
         sodipodi:role="line"
         id="tspan3966"
         x="189.16667"
         y="249.16667" /></text>
    <path
       sodipodi:type="arc"
       style="fill:#2c2c2c;fill-opacity:1;stroke:#dcdcdc;stroke-width:8;stroke-linecap:round;stroke-miterlimit:4;stroke-opacity:1;stroke-dasharray:none"
       id="path3991"
       sodipodi:cx="115"
       sodipodi:cy="390"
       sodipodi:rx="10"
       sodipodi:ry="10"
       d="m 125,390 c 0,5.52285 -4.47715,10 -10,10 -5.52285,0 -10,-4.47715 -10,-10 0,-5.52285 4.47715,-10 10,-10 5.52285,0 10,4.47715 10,10 z"
       transform="translate(-10,395)" />
    <g
       id="g4031"
       transform="matrix(0.9375,0,0,0.9375,535,802.79463)"
       style="fill:#2c2c2c;fill-opacity:1">
      <g
         id="Layer_1-3"
         style="fill:#2c2c2c;fill-opacity:1" />
      <g
         id="home"
         style="fill:#2c2c2c;fill-opacity:1">
        <path
           id="path4023"
           d="M 16,0 0,16 H 4 V 32 H 28 V 16 h 4 L 16,0 z m 8,28 h -6 v -6 h -4 v 6 H 8 V 13.656 L 16,8 24,13.656 V 28 z"
           style="fill:#2c2c2c;fill-opacity:1"
           inkscape:connector-curvature="0" />
      </g>
    </g>
    <g
       id="g4089"
       transform="translate(360.12122,367.999)"
       style="fill:#2c2c2c;fill-opacity:1">
      <g
         id="Layer_1-7"
         style="fill:#2c2c2c;fill-opacity:1" />
      <g
         id="sun_x5F_stroke"
         style="fill:#2c2c2c;fill-opacity:1">
        <g
           id="g4063"
           style="fill:#2c2c2c;fill-opacity:1">
          <path
             id="path4065"
             d="m 16,12 c 2.203,0 4,1.795 4,4 0,2.205 -1.797,4 -4,4 -2.203,0 -4,-1.795 -4,-4 0,-2.205 1.797,-4 4,-4 m 0,-4 c -4.418,0 -8,3.582 -8,8 0,4.418 3.582,8 8,8 4.418,0 8,-3.582 8,-8 0,-4.418 -3.582,-8 -8,-8 l 0,0 z"
             style="fill:#2c2c2c;fill-opacity:1"
             inkscape:connector-curvature="0" />
          <circle
             id="circle4067"
             r="2"
             cy="2"
             cx="16"
             style="fill:#2c2c2c;fill-opacity:1"
             sodipodi:cx="16"
             sodipodi:cy="2"
             sodipodi:rx="2"
             sodipodi:ry="2"
             d="m 18,2 c 0,1.1045695 -0.895431,2 -2,2 -1.104569,0 -2,-0.8954305 -2,-2 0,-1.1045695 0.895431,-2 2,-2 1.104569,0 2,0.8954305 2,2 z" />
          <circle
             id="circle4069"
             r="2"
             cy="6"
             cx="6"
             style="fill:#2c2c2c;fill-opacity:1"
             sodipodi:cx="6"
             sodipodi:cy="6"
             sodipodi:rx="2"
             sodipodi:ry="2"
             d="M 8,6 C 8,7.1045695 7.1045695,8 6,8 4.8954305,8 4,7.1045695 4,6 4,4.8954305 4.8954305,4 6,4 7.1045695,4 8,4.8954305 8,6 z" />
          <path
             id="path4071"
             d="m 2,13.998 c 1.105,0 2,0.895 2,2 0,1.107 -0.895,2 -2,2 -1.105,0 -2,-0.893 -2,-2 0,-1.105 0.895,-2 2,-2 z"
             style="fill:#2c2c2c;fill-opacity:1"
             inkscape:connector-curvature="0" />
          <circle
             id="circle4073"
             r="2"
             cy="26"
             cx="6"
             style="fill:#2c2c2c;fill-opacity:1"
             sodipodi:cx="6"
             sodipodi:cy="26"
             sodipodi:rx="2"
             sodipodi:ry="2"
             d="m 8,26 c 0,1.104569 -0.8954305,2 -2,2 -1.1045695,0 -2,-0.895431 -2,-2 0,-1.104569 0.8954305,-2 2,-2 1.1045695,0 2,0.895431 2,2 z" />
          <path
             id="path4075"
             d="m 14,30 c 0,-1.109 0.895,-2 2,-2 1.109,0 2,0.891 2,2 0,1.102 -0.891,2 -2,2 -1.105,0 -2,-0.898 -2,-2 z"
             style="fill:#2c2c2c;fill-opacity:1"
             inkscape:connector-curvature="0" />
          <path
             id="path4077"
             d="m 24.594,27.414 c -0.781,-0.781 -0.781,-2.047 0,-2.828 0.785,-0.781 2.047,-0.781 2.828,0 0.781,0.781 0.785,2.047 0,2.828 -0.781,0.781 -2.047,0.781 -2.828,0 z"
             style="fill:#2c2c2c;fill-opacity:1"
             inkscape:connector-curvature="0" />
          <path
             id="path4079"
             d="M 29.996,17.998 C 28.895,17.998 28,17.104 28,16 c 0,-1.109 0.891,-2 2,-2 1.102,0 2,0.893 2,1.998 0,1.107 -0.898,2.002 -2.004,2 z"
             style="fill:#2c2c2c;fill-opacity:1"
             inkscape:connector-curvature="0" />
          <path
             id="path4081"
             d="m 27.422,7.416 c -0.781,0.779 -2.047,0.779 -2.828,0 -0.781,-0.785 -0.781,-2.047 0,-2.83 0.781,-0.779 2.047,-0.781 2.828,0.002 0.781,0.781 0.781,2.049 0,2.828 z"
             style="fill:#2c2c2c;fill-opacity:1"
             inkscape:connector-curvature="0" />
        </g>
      </g>
    </g>
    <g
       id="g4119"
       transform="matrix(0.81196556,0,0,0.81196556,790.39241,762.12195)"
       style="fill:#2c2c2c;fill-opacity:1">
      <g
         id="Layer_1-0"
         style="fill:#2c2c2c;fill-opacity:1" />
      <g
         id="user"
         style="fill:#2c2c2c;fill-opacity:1">
        <g
           id="g4107"
           style="fill:#2c2c2c;fill-opacity:1">
          <path
             id="path4109"
             d="M 12,16 C 5.375,16 0,21.375 0,28 c 0,2.211 1.789,4 4,4 h 16 c 2.211,0 4,-1.789 4,-4 0,-6.625 -5.375,-12 -12,-12 z"
             style="fill:#2c2c2c;fill-opacity:1"
             inkscape:connector-curvature="0" />
          <circle
             id="circle4111"
             r="6"
             cy="6"
             cx="12"
             style="fill:#2c2c2c;fill-opacity:1"
             sodipodi:cx="12"
             sodipodi:cy="6"
             sodipodi:rx="6"
             sodipodi:ry="6"
             d="m 18,6 c 0,3.3137085 -2.686292,6 -6,6 C 8.6862915,12 6,9.3137085 6,6 6,2.6862915 8.6862915,0 12,0 c 3.313708,0 6,2.6862915 6,6 z" />
        </g>
      </g>
    </g>
    <g
       id="g4308"
       transform="translate(270.09091,367.999)"
       style="fill:#2c2c2c;fill-opacity:1;stroke:none">
      <g
         id="Layer_1"
         style="fill:#2c2c2c;fill-opacity:1;stroke:none" />
      <g
         id="read_x5F_more"
         style="fill:#2c2c2c;fill-opacity:1;stroke:none">
        <g
           id="g4288"
           style="fill:#2c2c2c;fill-opacity:1;stroke:none">
          <polygon
             id="polygon4290"
             points="32,0 32,4 32,4 0,4 0,0 "
             style="fill:#2c2c2c;fill-opacity:1;stroke:none" />
          <polygon
             id="polygon4292"
             points="20,8 20,12 20,12 0,12 0,8 "
             style="fill:#2c2c2c;fill-opacity:1;stroke:none" />
          <polygon
             id="polygon4294"
             points="32,16.086 32,20.086 32,20.086 0,20.086 0,16.086 "
             style="fill:#2c2c2c;fill-opacity:1;stroke:none" />
          <circle
             id="circle4296"
             r="2"
             cy="30"
             cx="2"
             style="fill:#2c2c2c;fill-opacity:1;stroke:none"
             sodipodi:cx="2"
             sodipodi:cy="30"
             sodipodi:rx="2"
             sodipodi:ry="2"
             d="m 4,30 c 0,1.104569 -0.8954305,2 -2,2 -1.1045695,0 -2,-0.895431 -2,-2 0,-1.104569 0.8954305,-2 2,-2 1.1045695,0 2,0.895431 2,2 z" />
          <path
             id="path4298"
             d="m 12,30 c 0,1.105 -0.898,2 -2,2 -1.109,0 -2.004,-0.895 -2.004,-2 0,-1.105 0.895,-2 2.004,-2 1.102,0 2,0.895 2,2 z"
             style="fill:#2c2c2c;fill-opacity:1;stroke:none"
             inkscape:connector-curvature="0" />
          <circle
             id="circle4300"
             r="2"
             cy="30"
             cx="18"
             style="fill:#2c2c2c;fill-opacity:1;stroke:none"
             sodipodi:cx="18"
             sodipodi:cy="30"
             sodipodi:rx="2"
             sodipodi:ry="2"
             d="m 20,30 c 0,1.104569 -0.895431,2 -2,2 -1.104569,0 -2,-0.895431 -2,-2 0,-1.104569 0.895431,-2 2,-2 1.104569,0 2,0.895431 2,2 z" />
        </g>
      </g>
    </g>
    <g
       id="g4331"
       transform="matrix(0.8516875,0,0,0.8516875,663.64203,946.47168)"
       style="fill:#2c2c2c;fill-opacity:1;stroke:none">
      <g
         id="Layer_1-9"
         style="fill:#2c2c2c;fill-opacity:1;stroke:none" />
      <g
         id="share"
         style="fill:#2c2c2c;fill-opacity:1;stroke:none">
        <path
           id="path4323"
           d="m 28,24 c -0.973,0 -1.832,0.391 -2.523,0.965 L 19.379,20.613 C 19.766,19.816 20,18.941 20,18 20,16.707 19.578,15.512 18.883,14.535 L 26.016,7.398 C 26.609,7.746 27.262,8 28,8 30.211,8 32,6.211 32,4 32,1.789 30.211,0 28,0 c -2.211,0 -4,1.789 -4,4 0,0.738 0.254,1.391 0.602,1.984 l -7.133,7.137 C 16.484,12.418 15.297,12 14,12 11.711,12 9.742,13.301 8.73,15.191 L 3.914,13.582 C 3.719,12.684 2.957,12 2,12 c -1.105,0 -2,0.895 -2,2 0,1.105 0.895,2 2,2 0.504,0 0.953,-0.203 1.305,-0.512 l 4.789,1.598 C 8.047,17.387 8,17.688 8,18 c 0,3.312 2.688,6 6,6 1.648,0 3.145,-0.668 4.23,-1.746 l 6.059,4.324 C 24.117,27.023 24,27.496 24,28 c 0,2.207 1.789,4 4,4 2.211,0 4,-1.793 4,-4 0,-2.207 -1.789,-4 -4,-4 z"
           style="fill:#2c2c2c;fill-opacity:1;stroke:none"
           inkscape:connector-curvature="0" />
      </g>
    </g>
    <g
       id="g4364"
       transform="translate(450.15152,367.999)"
       style="fill:#2c2c2c;fill-opacity:1;stroke:none">
      <g
         id="Layer_1-75"
         style="fill:#2c2c2c;fill-opacity:1;stroke:none" />
      <g
         id="list_x5F_nested"
         style="fill:#2c2c2c;fill-opacity:1;stroke:none">
        <g
           id="g4340"
           style="fill:#2c2c2c;fill-opacity:1;stroke:none">
          <circle
             id="circle4342"
             r="2"
             cy="2"
             cx="2"
             style="fill:#2c2c2c;fill-opacity:1;stroke:none"
             sodipodi:cx="2"
             sodipodi:cy="2"
             sodipodi:rx="2"
             sodipodi:ry="2"
             d="M 4,2 C 4,3.1045695 3.1045695,4 2,4 0.8954305,4 0,3.1045695 0,2 0,0.8954305 0.8954305,0 2,0 3.1045695,0 4,0.8954305 4,2 z" />
          <rect
             id="rect4344"
             height="4"
             width="24"
             style="fill:#2c2c2c;fill-opacity:1;stroke:none"
             x="8"
             y="0" />
          <circle
             id="circle4346"
             r="2"
             cy="10"
             cx="10"
             style="fill:#2c2c2c;fill-opacity:1;stroke:none"
             sodipodi:cx="10"
             sodipodi:cy="10"
             sodipodi:rx="2"
             sodipodi:ry="2"
             d="m 12,10 c 0,1.104569 -0.895431,2 -2,2 -1.1045695,0 -2,-0.895431 -2,-2 0,-1.1045695 0.8954305,-2 2,-2 1.104569,0 2,0.8954305 2,2 z" />
          <rect
             id="rect4348"
             height="4"
             width="16"
             style="fill:#2c2c2c;fill-opacity:1;stroke:none"
             y="8"
             x="16" />
          <circle
             id="circle4350"
             r="2"
             cy="26"
             cx="10"
             style="fill:#2c2c2c;fill-opacity:1;stroke:none"
             sodipodi:cx="10"
             sodipodi:cy="26"
             sodipodi:rx="2"
             sodipodi:ry="2"
             d="m 12,26 c 0,1.104569 -0.895431,2 -2,2 -1.1045695,0 -2,-0.895431 -2,-2 0,-1.104569 0.8954305,-2 2,-2 1.104569,0 2,0.895431 2,2 z" />
          <rect
             id="rect4352"
             height="4"
             width="16"
             style="fill:#2c2c2c;fill-opacity:1;stroke:none"
             y="24"
             x="16" />
          <circle
             id="circle4354"
             r="2"
             cy="18"
             cx="18"
             style="fill:#2c2c2c;fill-opacity:1;stroke:none"
             sodipodi:cx="18"
             sodipodi:cy="18"
             sodipodi:rx="2"
             sodipodi:ry="2"
             d="m 20,18 c 0,1.104569 -0.895431,2 -2,2 -1.104569,0 -2,-0.895431 -2,-2 0,-1.104569 0.895431,-2 2,-2 1.104569,0 2,0.895431 2,2 z" />
          <rect
             id="rect4356"
             height="4"
             width="8"
             style="fill:#2c2c2c;fill-opacity:1;stroke:none"
             y="16"
             x="24" />
        </g>
      </g>
    </g>
    <g
       id="g4395"
       transform="translate(540.18181,367.999)"
       style="fill:#2c2c2c;fill-opacity:1;stroke:none">
      <g
         id="Layer_1-6"
         style="fill:#2c2c2c;fill-opacity:1;stroke:none" />
      <g
         id="layers"
         style="fill:#2c2c2c;fill-opacity:1;stroke:none">
        <g
           id="g4381"
           style="fill:#2c2c2c;fill-opacity:1;stroke:none">
          <polygon
             id="polygon4383"
             points="0,20 16,24 32,20 32,24 16,28 0,24 "
             style="fill:#2c2c2c;fill-opacity:1;stroke:none" />
          <polygon
             id="polygon4385"
             points="0,12 16,16 32,12 32,16 16,20 0,16 "
             style="fill:#2c2c2c;fill-opacity:1;stroke:none" />
          <polygon
             id="polygon4387"
             points="0,4 16,0 32,4 32,8 16,12 0,8 "
             style="fill:#2c2c2c;fill-opacity:1;stroke:none" />
        </g>
      </g>
    </g>
    <g
       id="g4419"
       transform="translate(630.21216,367.999)"
       style="fill:#2c2c2c;fill-opacity:1;stroke:none">
      <g
         id="Layer_1-8"
         style="fill:#2c2c2c;fill-opacity:1;stroke:none" />
      <g
         id="cd"
         style="fill:#2c2c2c;fill-opacity:1;stroke:none">
        <g
           id="g4407"
           style="fill:#2c2c2c;fill-opacity:1;stroke:none">
          <g
             id="g4409"
             style="fill:#2c2c2c;fill-opacity:1;stroke:none">
            <path
               id="path4411"
               d="M 16,0 C 7.164,0 0,7.164 0,16 0,24.836 7.164,32 16,32 24.836,32 32,24.836 32,16 32,7.164 24.836,0 16,0 z m 0.031,19.934 c -2.188,0 -3.965,-1.773 -3.965,-3.965 0,-2.195 1.777,-3.969 3.965,-3.969 2.196,0 3.969,1.773 3.969,3.969 0,2.191 -1.773,3.965 -3.969,3.965 z"
               style="fill:#2c2c2c;fill-opacity:1;stroke:none"
               inkscape:connector-curvature="0" />
          </g>
        </g>
      </g>
    </g>
    <g
       id="g4438"
       transform="translate(720.24242,367.999)"
       style="fill:#2c2c2c;fill-opacity:1;stroke:none">
      <g
         id="Layer_1-62"
         style="fill:#2c2c2c;fill-opacity:1;stroke:none" />
      <g
         id="cloud"
         style="fill:#2c2c2c;fill-opacity:1;stroke:none">
        <path
           id="path4430"
           d="M 24,4 C 23.621,4 23.262,4.061 22.898,4.111 21.504,1.646 18.926,0 16,0 13.012,0 10.434,1.666 9.059,4.1 8.707,4.053 8.355,4 8,4 3.59,4 0,7.588 0,12 c 0,4.414 3.59,8 8,8 h 16 c 4.41,0 8,-3.586 8,-8 0,-4.412 -3.59,-8 -8,-8 z m 0,12 H 8 C 5.793,16 4,14.205 4,12 4,9.807 5.941,8.115 8.004,8.055 c 0.008,0.943 0.172,1.869 0.5,2.744 L 12.25,9.397 C 12.082,8.953 12,8.482 12,8 12,5.795 13.793,4 16,4 17.293,4 18.465,4.641 19.199,5.639 17.27,7.1 16,9.395 16,12 h 4 c 0,-2.205 1.793,-4 4,-4 2.207,0 4,1.795 4,4 0,2.205 -1.793,4 -4,4 z"
           style="fill:#2c2c2c;fill-opacity:1;stroke:none"
           inkscape:connector-curvature="0" />
      </g>
    </g>
    <g
       id="g4457"
       transform="translate(810.2727,367.999)"
       style="fill:#2c2c2c;fill-opacity:1;stroke:none">
      <g
         id="Layer_1-39"
         style="fill:#2c2c2c;fill-opacity:1;stroke:none" />
      <g
         id="cloud_x5F_download"
         style="fill:#2c2c2c;fill-opacity:1;stroke:none">
        <g
           id="g4447"
           style="fill:#2c2c2c;fill-opacity:1;stroke:none">
          <path
             id="path4449"
             d="M 24,4 C 23.625,4 23.262,4.059 22.898,4.113 21.504,1.645 18.926,0 16,0 13.012,0 10.432,1.668 9.059,4.098 8.707,4.051 8.357,4 8,4 3.588,4 0,7.59 0,12 c 0,4.41 3.588,8 8,8 h 6 v 6 H 10 L 15.998,32 22,26 h -4 v -6 h 6 c 4.414,0 8,-3.59 8,-8 0,-4.41 -3.586,-8 -8,-8 z m 0,12 H 8 C 5.795,16 4,14.207 4,12 4,9.809 5.943,8.113 8.004,8.055 c 0.008,0.941 0.172,1.871 0.5,2.746 L 12.25,9.395 C 12.084,8.953 12,8.48 12,8 12,5.793 13.795,4 16,4 17.295,4 18.463,4.641 19.201,5.637 17.27,7.098 16,9.395 16,12 h 4 c 0,-2.207 1.797,-4 4,-4 2.203,0 4,1.793 4,4 0,2.207 -1.797,4 -4,4 z"
             style="fill:#2c2c2c;fill-opacity:1;stroke:none"
             inkscape:connector-curvature="0" />
        </g>
      </g>
    </g>
    <g
       id="g4479"
       transform="translate(900.30304,367.999)"
       style="fill:#2c2c2c;fill-opacity:1;stroke:none">
      <g
         id="Layer_1-68"
         style="fill:#2c2c2c;fill-opacity:1;stroke:none" />
      <g
         id="eye"
         style="fill:#2c2c2c;fill-opacity:1;stroke:none">
        <g
           id="g4467"
           style="fill:#2c2c2c;fill-opacity:1;stroke:none">
          <path
             id="path4469"
             d="M 16,0 C 7.164,0 0,11.844 0,11.844 0,11.844 7.164,24 16,24 24.836,24 32,11.844 32,11.844 32,11.844 24.836,0 16,0 z m 0,20 c -4.418,0 -8,-3.582 -8,-8 0,-4.418 3.582,-8 8,-8 4.418,0 8,3.582 8,8 0,4.418 -3.582,8 -8,8 z"
             style="fill:#2c2c2c;fill-opacity:1;stroke:none"
             inkscape:connector-curvature="0" />
          <circle
             id="circle4471"
             r="4"
             cy="12.016"
             cx="16"
             style="fill:#2c2c2c;fill-opacity:1;stroke:none"
             sodipodi:cx="16"
             sodipodi:cy="12.016"
             sodipodi:rx="4"
             sodipodi:ry="4"
             d="m 20,12.016 c 0,2.209139 -1.790861,4 -4,4 -2.209139,0 -4,-1.790861 -4,-4 0,-2.2091392 1.790861,-4.0000002 4,-4.0000002 2.209139,0 4,1.790861 4,4.0000002 z" />
        </g>
      </g>
    </g>
    <g
       id="g4502"
       transform="translate(990.3334,367.999)"
       style="fill:#2c2c2c;fill-opacity:1;stroke:none">
      <g
         id="Layer_1-38"
         style="fill:#2c2c2c;fill-opacity:1;stroke:none" />
      <g
         id="image"
         style="fill:#2c2c2c;fill-opacity:1;stroke:none">
        <g
           id="g4490"
           style="fill:#2c2c2c;fill-opacity:1;stroke:none">
          <polygon
             id="polygon4492"
             points="32,24 8,24 8,16 12,12 16,16 24,8 32,16 "
             style="fill:#2c2c2c;fill-opacity:1;stroke:none" />
          <polygon
             id="polygon4494"
             points="4,32 28,32 32,28 4,28 4,0 0,4 0,28 0,32 "
             style="fill:#2c2c2c;fill-opacity:1;stroke:none" />
        </g>
      </g>
    </g>
    <g
       id="g4525"
       transform="translate(188.0606,367.999)"
       style="fill:#2c2c2c;fill-opacity:1;stroke:none">
      <g
         id="Layer_1-2"
         style="fill:#2c2c2c;fill-opacity:1;stroke:none" />
      <g
         id="info"
         style="fill:#2c2c2c;fill-opacity:1;stroke:none">
        <g
           id="g4513"
           style="fill:#2c2c2c;fill-opacity:1;stroke:none">
          <path
             id="path4515"
             d="m 2,16 c 1.105,0 2,0.895 2,2 v 8 c 0,1.105 -0.895,2 -2,2 H 0 v 4 h 16 v -4 h -1.992 c -1.102,0 -2,-0.895 -2,-2 L 12,12 H 0 v 4 h 2 z"
             style="fill:#2c2c2c;fill-opacity:1;stroke:none"
             inkscape:connector-curvature="0" />
          <circle
             id="circle4517"
             r="4"
             cy="4"
             cx="8"
             style="fill:#2c2c2c;fill-opacity:1;stroke:none"
             sodipodi:cx="8"
             sodipodi:cy="4"
             sodipodi:rx="4"
             sodipodi:ry="4"
             d="M 12,4 C 12,6.209139 10.209139,8 8,8 5.790861,8 4,6.209139 4,4 4,1.790861 5.790861,0 8,0 c 2.209139,0 4,1.790861 4,4 z" />
        </g>
      </g>
    </g>
    <g
       id="g4548"
       transform="translate(90.0303,367.999)"
       style="fill:#2c2c2c;fill-opacity:1;stroke:none">
      <g
         id="Layer_1-96"
         style="fill:#2c2c2c;fill-opacity:1;stroke:none" />
      <g
         id="loop_x5F_alt2"
         style="fill:#2c2c2c;fill-opacity:1;stroke:none">
        <g
           id="g4536"
           style="fill:#2c2c2c;fill-opacity:1;stroke:none">
          <path
             id="path4538"
             d="M 19.945,20 25.953,12 32,20 h -4 v 2 c 0,3.309 -2.691,6 -6,6 H 10 C 6.691,28 4,25.309 4,22 v -2 h 4 v 2 c 0,1.102 0.898,2 2,2 h 12 c 1.102,0 2,-0.898 2,-2 v -2 h -4.055 z"
             style="fill:#2c2c2c;fill-opacity:1;stroke:none"
             inkscape:connector-curvature="0" />
          <path
             id="path4540"
             d="M 12.055,8 6.047,16 0,8 H 4 V 6 C 4,2.691 6.691,0 10,0 h 12 c 3.309,0 6,2.691 6,6 V 8 H 24 V 6 C 24,4.898 23.102,4 22,4 H 10 C 8.898,4 8,4.898 8,6 v 2 h 4.055 z"
             style="fill:#2c2c2c;fill-opacity:1;stroke:none"
             inkscape:connector-curvature="0" />
        </g>
      </g>
    </g>
    <g
       id="g4581"
       transform="translate(0,367.999)"
       style="fill:#2c2c2c;fill-opacity:1;stroke:none">
      <g
         id="Layer_1-35"
         style="fill:#2c2c2c;fill-opacity:1;stroke:none" />
      <g
         id="rss"
         style="fill:#2c2c2c;fill-opacity:1;stroke:none">
        <g
           id="g4559"
           style="fill:#2c2c2c;fill-opacity:1;stroke:none">
          <circle
             id="circle4561"
             r="4.0009999"
             cy="28"
             cx="4.0009999"
             style="fill:#2c2c2c;fill-opacity:1;stroke:none"
             sodipodi:cx="4.0009999"
             sodipodi:cy="28"
             sodipodi:rx="4.0009999"
             sodipodi:ry="4.0009999"
             d="m 8.0019999,28 c 0,2.209691 -1.7913087,4.001 -4.001,4.001 C 1.7913087,32.001 0,30.209691 0,28 c 0,-2.209691 1.7913087,-4.001 4.0009999,-4.001 2.2096913,0 4.001,1.791309 4.001,4.001 z" />
          <g
             id="g4563"
             style="fill:#2c2c2c;fill-opacity:1;stroke:none">
            <path
               id="path4565"
               d="m 6.023,20.004 c 3.309,0 6,2.691 6,6.004 h 4.002 C 16.025,20.492 11.537,16 6.023,16 v 4.004 z"
               style="fill:#2c2c2c;fill-opacity:1;stroke:none"
               inkscape:connector-curvature="0" />
          </g>
          <g
             id="g4567"
             style="fill:#2c2c2c;fill-opacity:1;stroke:none">
            <path
               id="path4569"
               d="m 5.996,12 c 7.719,0 14.002,6.285 14.002,14.008 H 24 C 24,16.078 15.924,8 5.996,8 v 4 z"
               style="fill:#2c2c2c;fill-opacity:1;stroke:none"
               inkscape:connector-curvature="0" />
          </g>
          <g
             id="g4571"
             style="fill:#2c2c2c;fill-opacity:1;stroke:none">
            <path
               id="path4573"
               d="M 5.996,4 C 18.129,4 28,13.871 28,26.008 h 4 C 32,11.664 20.336,0 5.996,0 v 4 z"
               style="fill:#2c2c2c;fill-opacity:1;stroke:none"
               inkscape:connector-curvature="0" />
          </g>
        </g>
      </g>
    </g>
    <text
       xml:space="preserve"
       style="font-size:40px;font-style:normal;font-variant:normal;font-weight:normal;font-stretch:normal;line-height:125%;letter-spacing:0px;word-spacing:0px;fill:#2c2c2c;fill-opacity:1;stroke:none;font-family:Webdings;-inkscape-font-specification:Webdings"
       x="-240"
       y="575"
       id="text4612"
       sodipodi:linespacing="125%"><tspan
         sodipodi:role="line"
         id="tspan4614"
         x="-240"
         y="575" /><tspan
         sodipodi:role="line"
         x="-240"
         y="604.69128"
         id="tspan4632"
         style="font-size:20px;font-style:normal;font-variant:normal;font-weight:normal;font-stretch:normal;fill:#2c2c2c;fill-opacity:1;font-family:Arial;-inkscape-font-specification:Arial">Colors from haunted.lua:</tspan><tspan
         sodipodi:role="line"
         x="-240"
         y="629.69128"
         id="tspan4634"
         style="font-size:20px;font-style:normal;font-variant:normal;font-weight:normal;font-stretch:normal;fill:#2c2c2c;fill-opacity:1;font-family:Arial;-inkscape-font-specification:Arial">b7b7b7  (light grey)</tspan><tspan
         sodipodi:role="line"
         x="-240"
         y="654.69128"
         style="font-size:20px;font-style:normal;font-variant:normal;font-weight:normal;font-stretch:normal;fill:#2c2c2c;fill-opacity:1;font-family:Arial;-inkscape-font-specification:Arial"
         id="tspan3143">6f6f6f  (medium grey)</tspan><tspan
         sodipodi:role="line"
         x="-240"
         y="679.69128"
         id="tspan4616"
         style="font-size:20px;font-style:normal;font-variant:normal;font-weight:normal;font-stretch:normal;fill:#2c2c2c;fill-opacity:1;font-family:Arial;-inkscape-font-specification:Arial">2c2c2c  (dark grey)</tspan><tspan
         sodipodi:role="line"
         x="-240"
         y="704.69128"
         id="tspan4618"
         style="font-size:20px;font-style:normal;font-variant:normal;font-weight:normal;font-stretch:normal;fill:#2c2c2c;fill-opacity:1;font-family:Arial;-inkscape-font-specification:Arial" /><tspan
         sodipodi:role="line"
         x="-240"
         y="729.69128"
         id="tspan4620"
         style="font-size:20px;font-style:normal;font-variant:normal;font-weight:normal;font-stretch:normal;fill:#2c2c2c;fill-opacity:1;font-family:Arial;-inkscape-font-specification:Arial">4a89a7  (teal / blue)</tspan><tspan
         sodipodi:role="line"
         x="-240"
         y="754.69128"
         id="tspan4622"
         style="font-size:20px;font-style:normal;font-variant:normal;font-weight:normal;font-stretch:normal;fill:#2c2c2c;fill-opacity:1;font-family:Arial;-inkscape-font-specification:Arial">e83737  (red)</tspan><tspan
         sodipodi:role="line"
         x="-240"
         y="779.69128"
         id="tspan4624"
         style="font-size:20px;font-style:normal;font-variant:normal;font-weight:normal;font-stretch:normal;fill:#2c2c2c;fill-opacity:1;font-family:Arial;-inkscape-font-specification:Arial">ebff46  (yellow)</tspan><tspan
         sodipodi:role="line"
         x="-240"
         y="804.69128"
         id="tspan4626"
         style="font-size:20px;font-style:normal;font-variant:normal;font-weight:normal;font-stretch:normal;fill:#2c2c2c;fill-opacity:1;font-family:Arial;-inkscape-font-specification:Arial">46a646  (green)</tspan><tspan
         sodipodi:role="line"
         x="-240"
         y="829.69128"
         id="tspan4628"
         style="font-size:20px;font-style:normal;font-variant:normal;font-weight:normal;font-stretch:normal;fill:#2c2c2c;fill-opacity:1;font-family:Arial;-inkscape-font-specification:Arial">f4732d  (orange)</tspan><tspan
         sodipodi:role="line"
         x="-240"
         y="854.69128"
         style="font-size:20px;font-style:normal;font-variant:normal;font-weight:normal;font-stretch:normal;fill:#2c2c2c;fill-opacity:1;font-family:Arial;-inkscape-font-specification:Arial"
         id="tspan3145">ffa300  (bright orange)</tspan><tspan
         sodipodi:role="line"
         x="-240"
         y="879.69128"
         id="tspan4630"
         style="font-size:20px;font-style:normal;font-variant:normal;font-weight:normal;font-stretch:normal;fill:#2c2c2c;fill-opacity:1;font-family:Arial;-inkscape-font-specification:Arial" /></text>
    <text
       xml:space="preserve"
       style="font-size:40px;font-style:normal;font-variant:normal;font-weight:normal;font-stretch:normal;line-height:125%;letter-spacing:0px;word-spacing:0px;fill:#2c2c2c;fill-opacity:1;stroke:none;font-family:Webdings;-inkscape-font-specification:Webdings"
       x="0"
       y="325"
       id="text4636"
       sodipodi:linespacing="125%"><tspan
         sodipodi:role="line"
         id="tspan4638"
         x="0"
         y="325"
         style="font-size:20px;font-style:normal;font-variant:normal;font-weight:normal;font-stretch:normal;fill:#2c2c2c;fill-opacity:1;font-family:Arial;-inkscape-font-specification:Arial">A few symbols from the open source &quot;Iconic&quot; vector set.  See more at: http://somerandomdude.com/work/iconic/</tspan></text>
    <rect
       style="fill:#4a89a7;fill-opacity:1;stroke:none"
       id="rect5148"
       width="10"
       height="10"
       x="-260"
       y="720" />
    <rect
       style="fill:#e83737;fill-opacity:1;stroke:none"
       id="rect5148-7"
       width="10"
       height="10"
       x="-260"
       y="745" />
    <rect
       style="fill:#ebff46;fill-opacity:1;stroke:none"
       id="rect5148-4"
       width="10"
       height="10"
       x="-260"
       y="770" />
    <rect
       style="fill:#46a646;fill-opacity:1;stroke:none"
       id="rect5148-2"
       width="10"
       height="10"
       x="-260"
       y="795" />
    <rect
       style="fill:#f4732d;fill-opacity:1;stroke:none"
       id="rect5148-3"
       width="10"
       height="10"
       x="-260"
       y="820" />
    <rect
       style="fill:#2c2c2c;fill-opacity:1;stroke:none"
       id="rect5148-9"
       width="10"
       height="10"
       x="-260"
       y="670" />
    <rect
       style="fill:#b7b7b7;fill-opacity:1;stroke:none"
       id="rect5148-0"
       width="10"
       height="10"
       x="-260"
       y="620" />
    <text
       xml:space="preserve"
       style="font-size:40px;font-style:normal;font-variant:normal;font-weight:normal;font-stretch:normal;line-height:125%;letter-spacing:0px;word-spacing:0px;fill:#2c2c2c;fill-opacity:1;stroke:none;font-family:Webdings;-inkscape-font-specification:Webdings"
       x="0"
       y="1260"
       id="text5251"
       sodipodi:linespacing="125%"><tspan
         sodipodi:role="line"
         id="tspan5253"
         x="0"
         y="1260"
         style="font-size:20px;font-style:normal;font-variant:normal;font-weight:normal;font-stretch:normal;font-family:Arial;-inkscape-font-specification:Arial;fill:#2c2c2c;fill-opacity:1">After editing, export this page at 90dpi.</tspan></text>
    <rect
       style="fill:#6f6f6f;fill-opacity:1;stroke:none"
       id="rect5148-0-8"
       width="10"
       height="10"
       x="-260"
       y="645" />
    <rect
       style="fill:#ffa300;fill-opacity:1;stroke:none"
       id="rect5148-3-8"
       width="10"
       height="10"
       x="-260"
       y="845" />
  </g>
</svg>
